<svg xmlns="http://www.w3.org/2000/svg" viewBox="0 0 1254 1254" role="img" aria-label="Data Machi">
  <rect width="1254" height="1254" rx="280" fill="#ffffff"/>
    <path fill="#01261c" fill-rule="evenodd" d="m610 84-1 1h-5l-1 1h-5l-1 1h-3l-1 1h-3l-1 1h-3l-1 1h-2l-1 1h-2l-1 1h-2l-1 1h-2l-1 1h-1l-1 1h-1l-1 1h-1l-1 1h-2l-1 1h-1l-1 1h-1l-1 1-1 1h-1l-1 1h-1l-1 1h-1l-1 1h-1l-1 1h-1l-1 1h-1l-1 1h-1l-1 1-1 1h-1l-1 1h-1l-1 1h-1l-1 1h-1l-1 1h-1l-1 1h-1l-1 1h-1l-1 1h-1l-1 1h-1l-1 1-1 1h-1l-1 1h-2l-1 1-1 1h-1l-1 1h-1l-1 1h-1l-1 1h-1l-1 1h-1l-1 1h-1l-1 1h-1l-1 1h-1l-1 1h-1l-1 1h-1l-1 1h-1l-1 1-1 1h-1l-1 1h-1l-1 1h-1l-1 1h-1l-1 1h-1l-1 1h-1l-1 1h-1l-1 1h-1l-1 1-1 1h-1l-1 1h-1l-1 1h-1l-1 1h-1l-1 1h-1l-1 1h-1l-1 1h-1l-1 1-1 1h-1l-1 1h-1l-1 1h-1l-1 1h-1l-1 1h-2l-1 1-1 1h-1l-1 1h-1l-1 1h-1l-1 1h-1l-1 1h-1l-1 1h-1l-1 1h-1l-1 1h-1l-1 1-1 1h-1l-1 1h-1l-1 1h-1l-1 1h-1l-1 1h-1l-1 1h-1l-1 1h-1l-1 1h-1l-1 1h-1l-1 1-1 1h-1l-1 1h-1l-1 1h-1l-1 1h-1l-1 1h-1l-1 1h-1l-1 1h-1l-1 1-1 1h-1l-1 1h-1l-1 1h-1l-1 1h-1l-1 1h-1l-1 1h-1l-1 1h-1l-1 1h-1l-1 1h-1l-1 1h-1l-1 1h-1l-1 1h-1l-1 1h-1l-1 1-1 1h-1l-1 1h-1l-1 1h-1l-1 1h-1l-1 1h-1l-1 1h-1l-1 1h-1l-1 1-1 1h-1l-1 1h-1l-1 1h-1l-1 1h-1l-1 1h-1l-1 1h-1l-1 1h-1l-1 1h-1l-1 1h-1l-1 1h-1l-1 1-1 1h-1l-1 1h-1l-1 1h-1l-1 1h-1l-1 1h-1l-1 1h-1l-1 1h-1l-1 1h-1l-1 1h-1l-1 1h-1l-1 1h-1l-1 1-1 1h-1l-1 1h-1l-1 1h-1l-1 1h-1l-1 1h-1l-1 1h-1l-1 1h-1l-1 1h-1l-1 1h-1l-1 1-1 1h-1l-1 1h-2l-1 1-1 1h-1l-1 1h-1l-1 1h-1l-1 1h-1l-1 1h-1l-1 1h-1l-1 1h-1l-1 1-1 1h-1l-1 1h-1l-1 1h-1l-1 1h-1l-1 1h-1l-1 1h-1l-1 1h-1l-1 1h-1l-1 1h-1l-1 1h-1l-1 1-1 1h-1l-1 1h-1l-1 1h-1l-1 1h-1l-1 1h-1l-1 1h-1l-1 1h-1l-1 1-1 1h-1l-1 1h-1l-1 1h-1l-1 1h-1l-1 1h-1l-1 1h-1l-1 1h-1l-1 1h-1l-1 1h-1l-1 1h-1l-1 1h-1l-1 1h-1l-1 1h-1l-1 1h-1l-1 1h-1l-1 1-1 1h-1l-1 1h-1l-1 1h-1l-1 1h-1l-1 1h-1l-1 1h-1l-1 1h-1l-1 1h-1l-1 1-1 1h-1l-1 1h-1l-1 1h-1l-1 1h-1l-1 1h-1l-1 1h-1l-1 1-1 1-1 1-1 1-1 1h-1l-1 1-1 1v1l-1 1-1 1-1 1v1l-1 1v1l-1 1-1 1v1l-1 1v2l-1 1v3l-1 1v15l1 1v3l1 1v2l1 1v1l1 1v1l1 1v1l1 1 1 1 1 1 1 1v1l1 1 1 1 1 1 1 1 1 1h1l1 1 1 1h1l1 1 1 1h2l1 1h1l1 1h1l1 1h1l1 1h1l1 1h1l1 1h1l1 1h1l1 1 1 1h1l1 1h1l1 1h1l1 1h1l1 1h1l1 1h1l1 1h1l1 1h1l1 1h1l1 1h1l1 1h1l1 1h1l1 1h2l1 1 1 1h1l1 1h1l1 1h1l1 1h1l1 1h1l1 1h1l1 1h1l1 1h1l1 1 1 1h1l1 1h1l1 1h2l1 1h1l1 1h1l1 1h1l1 1h1l1 1h1l1 1h1l1 1 1 1h1l1 1h1l1 1h1l1 1h1l1 1h1l1 1h1l1 1h1l1 1h1l1 1h1l1 1h1l1 1h1l1 1h1l1 1h1l1 1h1l1 1h1l1 1h1l1 1 1 1h1l1 1h1l1 1h1l1 1h1l1 1h1l1 1h1l1 1h1l1 1h1l1 1h1l1 1h1l1 1h1l1 1h1l1 1h1l1 1 1 1h1l1 1h1l1 1h1l1 1h1l1 1h1l1 1h1l1 1h1l1 1h1l1 1h1l1 1h1l1 1h1l1 1h1l1 1h1l1 1h1l1 1 1 1h1l1 1h1l1 1h1l1 1h1l1 1h1l1 1h1l1 1h1l1 1h1l1 1h1l1 1h1l1 1h1l1 1h1l1 1h1l1 1h1l1 1 1 1h1l1 1h1l1 1h1l1 1h1l1 1h1l1 1h1l1 1h1l1 1h1l1 1h1l1 1 1 1h1l1 1h1l1 1h1l1 1h1l1 1h1l1 1h1l1 1h1l1 1h1l1 1h1l1 1h1l1 1h1l1 1 1 1h1l1 1h1l1 1h1l1 1h1l1 1h1l1 1h1l1 1h1l1 1h1l1 1h1l1 1h1l1 1h1l1 1 1 1h1l1 1h1l1 1h1l1 1h1l1 1h1l1 1h1l1 1h1l1 1h1l1 1h1l1 1h1l1 1 1 1h1l1 1h1l1 1h1l1 1h1l1 1h1l1 1h1l1 1h1l1 1h1l1 1h1l1 1h1l1 1h1l1 1h1l1 1h1l1 1 1 1h1l1 1h1l1 1h1l1 1h1l1 1h1l1 1h1l1 1h1l1 1 1 1h1l1 1h1l1 1h1l1 1h1l1 1h1l1 1h1l1 1h1l1 1h1l1 1h1l1 1h1l1 1h1l1 1h1l1 1h1l1 1h1l1 1 1 1h1l1 1h1l1 1h1l1 1h1l1 1h1l1 1h1l1 1h1l1 1h1l1 1 1 1h1l1 1h1l1 1h1l1 1h1l1 1h1l1 1h1l1 1h1l1 1h1l1 1h1l1 1h1l1 1h1l1 1 1 1h2l1 1h1l1 1h2l1 1h2l1 1h2l1 1h3l1 1h3l1 1h5l1 1h28l1-1h4l1-1h4l1-1h3l1-1h2l1-1h2l1-1h1l1-1h1l1-1h2l1-1h1l1-1h1l1-1h1l1-1h1l1-1 1-1h1l1-1h1l1-1h1l1-1h1l1-1h1l1-1h1l1-1h1l1-1h1l1-1h1l1-1 1-1h1l1-1h1l1-1h1l1-1h1l1-1h1l1-1h1l1-1h1l1-1h1l1-1h1l1-1h1l1-1h1l1-1 1-1h1l1-1h1l1-1h1l1-1h1l1-1h1l1-1h1l1-1h1l1-1h1l1-1h1l1-1h1l1-1 1-1h1l1-1h1l1-1h1l1-1h1l1-1h1l1-1h1l1-1h1l1-1h1l1-1h1l1-1h1l1-1h1l1-1 1-1h1l1-1h1l1-1h1l1-1h1l1-1h1l1-1h1l1-1 1-1h1l1-1h2l1-1h1l1-1h1l1-1 1-1h1l1-1h1l1-1h1l1-1h1l1-1h1l1-1h1l1-1h1l1-1h1l1-1 1-1h1l1-1h1l1-1h1l1-1h1l1-1h1l1-1h1l1-1h1l1-1h1l1-1h1l1-1h1l1-1h1l1-1h1l1-1h1l1-1h1l1-1 1-1h1l1-1h1l1-1h1l1-1h1l1-1 1-1h2l1-1h1l1-1h1l1-1h1l1-1 1-1 1-1 1-1 1-1 1-1v-1l1-1v-1l1-1v-10l-1-1v-1l-1-1v-1l-1-1-1-1v-1h-1l-1-1-1-1h-1l-1-1h-1l-1-1-1-1h-1l-1-1h-1l-1-1h-1l-1-1h-1l-1-1h-1l-1-1h-1l-1-1-1-1h-1l-1-1h-1l-1-1h-1l-1-1h-1l-1-1h-1l-1-1h-1l-1-1h-1l-1-1h-1l-1-1-1-1h-1l-1-1h-1l-1-1h-1l-1-1h-1l-1-1h-1l-1-1h-1l-1-1-1-1h-1l-1-1h-1l-1-1h-1l-1-1h-1l-1-1h-1l-1-1h-1l-1-1-1-1h-1l-1-1h-1l-1-1h-1l-1-1h-1l-1-1-1-1h-1l-1-1h-1l-1-1h-1l-1-1h-1l-1-1h-1l-1-1h-1l-1-1h-1l-1-1h-2l-1-1h-2l-1-1h-5l-1-1h-9l-1 1h-4l-1 1h-3l-1 1h-1l-1 1h-2l-1 1h-1l-1 1-1 1h-1l-1 1h-1l-1 1h-1l-1 1h-1l-1 1h-1l-1 1h-1l-1 1h-1l-1 1h-1l-1 1-1 1h-1l-1 1h-1l-1 1h-1l-1 1h-1l-1 1h-1l-1 1h-1l-1 1h-1l-1 1-1 1h-1l-1 1h-1l-1 1h-1l-1 1h-1l-1 1h-1l-1 1h-1l-1 1-1 1h-1l-1 1h-1l-1 1h-1l-1 1h-1l-1 1h-1l-1 1h-1l-1 1h-1l-1 1h-1l-1 1h-1l-1 1-1 1h-1l-1 1h-1l-1 1h-1l-1 1h-1l-1 1h-1l-1 1h-1l-1 1-1 1h-1l-1 1h-2l-1 1h-1l-1 1h-3l-1 1h-5l-1 1h-14l-1-1h-4l-1-1h-3l-1-1h-2l-1-1h-2l-1-1h-1l-1-1h-1l-1-1h-1l-1-1h-1l-1-1-1-1h-1l-1-1h-1l-1-1h-1l-1-1h-1l-1-1h-1l-1-1h-1l-1-1h-1l-1-1h-1l-1-1h-1l-1-1h-1l-1-1h-1l-1-1h-1l-1-1h-1l-1-1h-1l-1-1-1-1h-1l-1-1h-1l-1-1h-1l-1-1h-1l-1-1h-1l-1-1h-1l-1-1h-1l-1-1h-1l-1-1-1-1h-1l-1-1h-1l-1-1h-1l-1-1h-2l-1-1-1-1h-1l-1-1h-1l-1-1h-1l-1-1h-1l-1-1h-1l-1-1h-1l-1-1h-1l-1-1-1-1h-1l-1-1h-1l-1-1h-1l-1-1h-1l-1-1h-1l-1-1h-1l-1-1h-2l-1-1h-1l-1-1-1-1h-1l-1-1h-1l-1-1h-1l-1-1h-1l-1-1h-1l-1-1h-1l-1-1h-1l-1-1h-1l-1-1h-1l-1-1-1-1h-1l-1-1h-1l-1-1h-1l-1-1h-1l-1-1h-1l-1-1h-1l-1-1h-1l-1-1h-1l-1-1h-1l-1-1-1-1h-1l-1-1h-1l-1-1h-1l-1-1h-1l-1-1h-1l-1-1h-1l-1-1h-1l-1-1h-1l-1-1h-1l-1-1h-1l-1-1h-1l-1-1h-1l-1-1h-1l-1-1-1-1h-1l-1-1h-1l-1-1h-1l-1-1h-1l-1-1h-1l-1-1h-1l-1-1h-1l-1-1h-1l-1-1h-1l-1-1h-1l-1-1-1-1h-1l-1-1h-1l-1-1h-1l-1-1h-1l-1-1-1-1-1-1-1-1-1-1v-1l-1-1v-1l-1-1v-4l-1-1v-2l1-1v-3l1-1v-1l1-1v-1l1-1 1-1 1-1 1-1 1-1h1l1-1h1l1-1h1l1-1h1l1-1 1-1h1l1-1h1l1-1h1l1-1h1l1-1h1l1-1h1l1-1h1l1-1h1l1-1h1l1-1h1l1-1h1l1-1h1l1-1h1l1-1h1l1-1h1l1-1h1l1-1h1l1-1 1-1h1l1-1h1l1-1h1l1-1h1l1-1h1l1-1h1l1-1h1l1-1 1-1h1l1-1h1l1-1h1l1-1h1l1-1h1l1-1h1l1-1h1l1-1h1l1-1h1l1-1h1l1-1h1l1-1h1l1-1h1l1-1h1l1-1h1l1-1 1-1h1l1-1h1l1-1h1l1-1h1l1-1h1l1-1h1l1-1h1l1-1 1-1h1l1-1h1l1-1h1l1-1h1l1-1h1l1-1h1l1-1h1l1-1h1l1-1h1l1-1h1l1-1h1l1-1h1l1-1h1l1-1h1l1-1h1l1-1h1l1-1 1-1h1l1-1h1l1-1h1l1-1h1l1-1h1l1-1h1l1-1h1l1-1h1l1-1h1l1-1h1l1-1h1l1-1h1l1-1h1l1-1h1l1-1 1-1h1l1-1h1l1-1h1l1-1h1l1-1h1l1-1h1l1-1h1l1-1h1l1-1h1l1-1h1l1-1h1l1-1h1l1-1h1l1-1h1l1-1h2l1-1h1l1-1h1l1-1h2l1-1h4l1-1h17l1 1h4l1 1h3l1 1h2l1 1h1l1 1h1l1 1h1l1 1h1l1 1h1l1 1h1l1 1h1l1 1h1l1 1h1l1 1h1l1 1h1l1 1h1l1 1h1l1 1h1l1 1 1 1h1l1 1h1l1 1h1l1 1h1l1 1h1l1 1h1l1 1h1l1 1h1l1 1h1l1 1h1l1 1 1 1h1l1 1h1l1 1h1l1 1h1l1 1h1l1 1h1l1 1 1 1h1l1 1h1l1 1h1l1 1h1l1 1h1l1 1h1l1 1h1l1 1h1l1 1h1l1 1h1l1 1 1 1h1l1 1h1l1 1h1l1 1h1l1 1h1l1 1 1 1h1l1 1h1l1 1h1l1 1h1l1 1h1l1 1h1l1 1h1l1 1h1l1 1h1l1 1 1 1h1l1 1h1l1 1h1l1 1h1l1 1h1l1 1 1 1h1l1 1h1l1 1h1l1 1h1l1 1h1l1 1h1l1 1h1l1 1h1l1 1h1l1 1h1l1 1 1 1h1l1 1h1l1 1h1l1 1h1l1 1 1 1h1l1 1h1l1 1h1l1 1h1l1 1 1 1h1l1 1h1l1 1h1l1 1h1l1 1h1l1 1h1l1 1 1 1h1l1 1h1l1 1h1l1 1 1 1h1l1 1h1l1 1h1l1 1h1l1 1h1l1 1 1 1h1l1 1h1l1 1h1l1 1h1l1 1 1 1h1l1 1h1l1 1h1l1 1h1l1 1h1l1 1h1l1 1 1 1h1l1 1h1l1 1h1l1 1h1l1 1h1l1 1h1l1 1 1 1h1l1 1h1l1 1h1l1 1h1l1 1 1 1h1l1 1h1l1 1h1l1 1 1 1h1l1 1h1l1 1h1l1 1h1l1 1h1l1 1h1l1 1h1l1 1 1 1h1l1 1h1l1 1h1l1 1 1 1h1l1 1h1l1 1h1l1 1h1l1 1 1 1h1l1 1h1l1 1h1l1 1h1l1 1h1l1 1h1l1 1h1l1 1 1 1h1l1 1h1l1 1h1l1 1 1 1h1l1 1h1l1 1h1l1 1 1 1h1l1 1h1l1 1h1l1 1h1l1 1h1l1 1h1l1 1 1 1h1l1 1h1l1 1h1l1 1h1l1 1h2l1 1h3l1 1h5l1 1h11l1-1h5l1-1h3l1-1h2l1-1h1l1-1h1l1-1h1l1-1h1l1-1h1l1-1h1l1-1h1l1-1h1l1-1h1l1-1h1l1-1h1l1-1h1l1-1h1l1-1h1l1-1h1l1-1h1l1-1h1l1-1h1l1-1h1l1-1h1l1-1h1l1-1h1l1-1h1l1-1h1l1-1h1l1-1h1l1-1h2l1-1h1l1-1 1-1h1l1-1h1l1-1 1-1 1-1 1-1 1-1 1-1 1-1 1-1 1-1 1-1v-1l1-1 1-1v-1l1-1v-1l1-1v-2l1-1v-2l1-1v-6l1-1v-4l-1-1v-5l-1-1v-3l-1-1v-1l-1-1v-1l-1-1v-1l-1-1v-1l-1-1-1-1-1-1v-1l-1-1-1-1h-1l-1-1-1-1-1-1-1-1-1-1h-1l-1-1h-1l-1-1-1-1h-2l-1-1h-1l-1-1-1-1h-1l-1-1h-1l-1-1h-1l-1-1h-1l-1-1h-1l-1-1h-1l-1-1h-1l-1-1h-1l-1-1h-1l-1-1h-1l-1-1-1-1h-1l-1-1h-1l-1-1h-1l-1-1h-1l-1-1h-1l-1-1h-1l-1-1h-1l-1-1-1-1h-1l-1-1h-1l-1-1h-1l-1-1h-1l-1-1h-1l-1-1h-1l-1-1h-1l-1-1h-1l-1-1h-1l-1-1-1-1h-1l-1-1h-1l-1-1h-1l-1-1h-1l-1-1h-1l-1-1h-1l-1-1h-1l-1-1h-1l-1-1h-1l-1-1h-1l-1-1h-1l-1-1h-1l-1-1h-1l-1-1h-1l-1-1-1-1h-1l-1-1h-1l-1-1h-1l-1-1h-1l-1-1h-1l-1-1h-1l-1-1h-1l-1-1h-1l-1-1h-1l-1-1h-1l-1-1h-1l-1-1h-1l-1-1-1-1h-1l-1-1h-1l-1-1h-1l-1-1h-1l-1-1h-1l-1-1h-1l-1-1h-1l-1-1h-1l-1-1-1-1h-1l-1-1h-1l-1-1h-1l-1-1h-1l-1-1h-1l-1-1h-1l-1-1h-1l-1-1h-1l-1-1h-1l-1-1h-1l-1-1h-1l-1-1-1-1h-1l-1-1h-1l-1-1h-1l-1-1h-1l-1-1h-1l-1-1h-1l-1-1h-1l-1-1h-1l-1-1h-1l-1-1-1-1h-1l-1-1h-1l-1-1h-2l-1-1-1-1h-1l-1-1h-1l-1-1h-1l-1-1h-1l-1-1h-1l-1-1-1-1h-1l-1-1h-1l-1-1h-1l-1-1h-1l-1-1h-1l-1-1h-1l-1-1h-1l-1-1h-1l-1-1h-1l-1-1h-1l-1-1h-1l-1-1h-1l-1-1-1-1h-1l-1-1h-1l-1-1h-1l-1-1h-1l-1-1h-1l-1-1h-1l-1-1h-1l-1-1h-1l-1-1h-1l-1-1-1-1h-1l-1-1h-1l-1-1h-1l-1-1h-1l-1-1h-1l-1-1h-1l-1-1h-1l-1-1h-1l-1-1-1-1h-1l-1-1h-1l-1-1h-1l-1-1h-1l-1-1h-1l-1-1h-1l-1-1h-1l-1-1h-1l-1-1-1-1h-1l-1-1h-1l-1-1h-1l-1-1h-1l-1-1h-1l-1-1h-1l-1-1h-1l-1-1h-1l-1-1-1-1h-1l-1-1h-1l-1-1h-1l-1-1h-1l-1-1h-1l-1-1h-1l-1-1h-1l-1-1h-1l-1-1h-1l-1-1h-1l-1-1h-1l-1-1-1-1h-1l-1-1h-1l-1-1h-1l-1-1h-1l-1-1h-1l-1-1h-1l-1-1h-1l-1-1h-1l-1-1h-1l-1-1h-1l-1-1h-1l-1-1-1-1h-1l-1-1h-1l-1-1h-1l-1-1h-1l-1-1h-1l-1-1h-1l-1-1h-1l-1-1h-1l-1-1h-1l-1-1h-1l-1-1h-1l-1-1h-1l-1-1h-1l-1-1-1-1h-1l-1-1h-1l-1-1h-1l-1-1h-1l-1-1h-1l-1-1h-1l-1-1h-1l-1-1-1-1h-1l-1-1h-1l-1-1h-1l-1-1h-1l-1-1h-2l-1-1h-1l-1-1h-2l-1-1h-1l-1-1h-1l-1-1h-2l-1-1h-2l-1-1h-3l-1-1h-3l-1-1h-3l-1-1h-5l-1-1h-5l-1-1h-33Z"/>
    <path fill="#02c956" d="m245 472-1 1h-4l-1 1h-3l-1 1h-2l-1 1h-1l-1 1h-1l-1 1h-1l-1 1h-1l-1 1h-1l-1 1h-1l-1 1h-1l-1 1h-1l-1 1h-1l-1 1h-1l-1 1h-1l-1 1-1 1h-1l-1 1h-1l-1 1h-1l-1 1h-1l-1 1h-1l-1 1h-1l-1 1-1 1h-1l-1 1h-1l-1 1h-1l-1 1h-1l-1 1h-1l-1 1h-1l-1 1h-1l-1 1-1 1h-1l-1 1h-1l-1 1-1 1-1 1-1 1-1 1-1 1-1 1-1 1-1 1-1 1v1l-1 1-1 1v1l-1 1v1l-1 1v2l-1 1v3l-1 1v15l1 1v3l1 1v1l1 1v2l1 1v1l1 1 1 1v1l1 1 1 1 1 1v1l1 1 1 1 1 1 1 1h1l1 1 1 1 1 1h1l1 1h1l1 1 1 1h2l1 1 1 1h1l1 1h1l1 1h1l1 1h1l1 1h1l1 1h1l1 1h1l1 1h1l1 1 1 1h1l1 1h1l1 1h1l1 1h1l1 1h1l1 1h1l1 1h1l1 1h1l1 1h1l1 1 1 1h1l1 1h1l1 1h1l1 1h1l1 1h1l1 1h1l1 1 1 1h1l1 1h1l1 1h1l1 1h1l1 1h1l1 1h1l1 1h1l1 1h1l1 1h1l1 1h1l1 1 1 1h1l1 1h1l1 1h1l1 1h1l1 1h1l1 1h1l1 1h1l1 1 1 1h1l1 1h1l1 1h1l1 1h1l1 1h1l1 1h1l1 1h1l1 1h1l1 1h1l1 1h1l1 1h1l1 1h1l1 1h1l1 1 1 1h1l1 1h1l1 1h1l1 1h1l1 1 1 1h1l1 1h1l1 1h1l1 1h2l1 1h1l1 1h1l1 1 1 1h1l1 1h1l1 1h1l1 1h1l1 1h1l1 1h1l1 1 1 1h1l1 1h1l1 1h1l1 1h1l1 1h1l1 1h1l1 1h1l1 1h1l1 1h1l1 1 1 1h1l1 1h1l1 1h1l1 1h1l1 1h1l1 1h1l1 1h1l1 1 1 1h1l1 1h1l1 1h1l1 1h1l1 1h1l1 1h1l1 1h1l1 1h1l1 1h1l1 1h1l1 1h1l1 1 1 1h1l1 1h1l1 1h1l1 1h1l1 1h1l1 1 1 1h1l1 1h1l1 1h1l1 1h1l1 1h1l1 1h1l1 1h1l1 1h1l1 1h1l1 1h1l1 1 1 1h1l1 1h1l1 1h1l1 1h1l1 1h1l1 1h1l1 1h1l1 1h1l1 1h1l1 1h1l1 1 1 1h1l1 1h1l1 1h1l1 1h1l1 1h1l1 1h1l1 1h1l1 1h1l1 1 1 1h1l1 1h1l1 1h1l1 1h1l1 1h1l1 1h1l1 1h1l1 1h1l1 1h1l1 1 1 1h1l1 1h1l1 1h1l1 1h1l1 1h1l1 1h1l1 1h1l1 1 1 1h1l1 1h1l1 1h1l1 1h1l1 1h1l1 1h1l1 1h1l1 1h1l1 1 1 1h1l1 1h1l1 1h1l1 1h1l1 1h1l1 1h1l1 1h1l1 1h1l1 1 1 1h1l1 1h1l1 1h1l1 1h1l1 1h1l1 1h1l1 1h1l1 1h1l1 1h1l1 1h1l1 1 1 1h1l1 1h1l1 1h1l1 1h1l1 1h1l1 1h1l1 1h1l1 1h1l1 1h1l1 1h1l1 1h1l1 1 1 1h1l1 1h1l1 1h1l1 1h1l1 1h2l1 1h2l1 1h2l1 1h2l1 1h2l1 1h3l1 1h5l1 1h7l1 1h20l1-1h7l1-1h4l1-1h4l1-1h2l1-1h2l1-1h3l1-1h1l1-1h2l1-1h1l1-1h1l1-1h1l1-1 1-1h1l1-1h1l1-1h1l1-1h1l1-1h1l1-1h1l1-1h1l1-1h1l1-1h1l1-1h1l1-1h1l1-1h1l1-1h1l1-1h1l1-1h1l1-1 1-1h1l1-1h1l1-1h1l1-1h1l1-1h1l1-1h1l1-1h1l1-1h1l1-1h1l1-1 1-1h1l1-1h1l1-1h1l1-1h1l1-1h1l1-1h1l1-1h1l1-1h1l1-1 1-1h1l1-1h1l1-1h1l1-1h1l1-1h1l1-1h1l1-1h1l1-1 1-1h1l1-1h1l1-1h1l1-1h1l1-1h1l1-1h1l1-1h1l1-1h1l1-1h1l1-1h1l1-1h1l1-1h1l1-1h1l1-1 1-1h1l1-1h1l1-1h1l1-1h1l1-1h1l1-1h1l1-1 1-1h1l1-1h1l1-1h1l1-1h1l1-1h1l1-1h1l1-1h1l1-1h1l1-1h1l1-1h1l1-1 1-1h1l1-1h1l1-1h1l1-1h1l1-1h1l1-1h1l1-1h1l1-1 1-1h1l1-1h1l1-1h1l1-1h1l1-1h1l1-1h1l1-1h1l1-1h1l1-1h1l1-1h1l1-1h1l1-1h1l1-1 1-1h1l1-1h1l1-1h1l1-1h1l1-1h1l1-1 1-1h2l1-1h1l1-1h1l1-1 1-1h1l1-1h1l1-1h1l1-1h1l1-1h1l1-1h1l1-1h1l1-1h1l1-1h1l1-1h1l1-1 1-1h1l1-1h1l1-1h1l1-1h1l1-1h1l1-1h1l1-1h1l1-1h1l1-1 1-1h1l1-1h1l1-1h1l1-1h1l1-1h1l1-1h1l1-1h1l1-1h1l1-1 1-1h1l1-1h2l1-1h1l1-1h1l1-1h1l1-1 1-1h1l1-1h1l1-1h1l1-1h1l1-1 1-1h1l1-1h1l1-1h1l1-1h1l1-1h1l1-1h1l1-1h1l1-1h1l1-1h1l1-1 1-1h1l1-1h1l1-1h1l1-1h1l1-1h1l1-1h1l1-1h1l1-1 1-1h1l1-1h1l1-1h1l1-1h1l1-1h1l1-1h1l1-1h1l1-1h1l1-1h1l1-1h1l1-1h1l1-1 1-1h1l1-1h1l1-1h1l1-1h1l1-1h1l1-1h1l1-1h1l1-1h1l1-1h1l1-1 1-1h1l1-1h1l1-1h1l1-1h1l1-1h1l1-1h1l1-1h1l1-1 1-1h1l1-1h1l1-1h1l1-1h1l1-1h1l1-1h1l1-1h1l1-1 1-1h1l1-1h1l1-1h1l1-1h1l1-1h1l1-1h1l1-1 1-1h1l1-1 1-1 1-1 1-1 1-1 1-1 1-1 1-1 1-1 1-1v-1l1-1 1-1v-1l1-1v-1l1-1v-1l1-1v-3l1-1v-5l1-1v-5l-1-1v-5l-1-1v-3l-1-1v-1l-1-1v-1l-1-1v-1l-1-1v-1l-1-1-1-1-1-1-1-1v-1l-1-1-1-1-1-1h-1l-1-1-1-1-1-1h-1l-1-1-1-1h-1l-1-1h-1l-1-1h-1l-1-1-1-1h-1l-1-1h-1l-1-1h-1l-1-1h-1l-1-1h-1l-1-1h-1l-1-1h-1l-1-1h-1l-1-1h-1l-1-1h-1l-1-1-1-1h-1l-1-1h-1l-1-1h-1l-1-1h-1l-1-1h-1l-1-1h-1l-1-1h-1l-1-1h-1l-1-1h-1l-1-1h-1l-1-1h-1l-1-1h-2l-1-1h-2l-1-1h-4l-1-1h-17l-1 1h-3l-1 1h-3l-1 1h-2l-1 1h-1l-1 1h-1l-1 1h-1l-1 1h-1l-1 1h-1l-1 1h-1l-1 1-1 1h-2l-1 1-1 1h-1l-1 1h-1l-1 1h-1l-1 1h-1l-1 1h-1l-1 1-1 1h-2l-1 1-1 1h-1l-1 1h-1l-1 1h-1l-1 1h-1l-1 1h-1l-1 1-1 1h-1l-1 1h-1l-1 1h-1l-1 1h-1l-1 1h-1l-1 1h-1l-1 1h-1l-1 1h-1l-1 1h-1l-1 1h-1l-1 1h-1l-1 1-1 1h-1l-1 1h-1l-1 1h-1l-1 1h-1l-1 1h-1l-1 1-1 1h-1l-1 1h-1l-1 1h-1l-1 1h-1l-1 1h-1l-1 1h-1l-1 1h-1l-1 1h-1l-1 1h-1l-1 1h-1l-1 1-1 1h-1l-1 1h-1l-1 1h-1l-1 1h-1l-1 1h-1l-1 1h-1l-1 1h-1l-1 1-1 1h-1l-1 1h-1l-1 1h-1l-1 1h-1l-1 1h-1l-1 1h-1l-1 1h-1l-1 1-1 1h-1l-1 1h-1l-1 1h-1l-1 1h-1l-1 1h-1l-1 1h-1l-1 1h-1l-1 1h-1l-1 1h-1l-1 1-1 1h-1l-1 1h-1l-1 1h-1l-1 1h-1l-1 1h-1l-1 1h-1l-1 1h-1l-1 1h-1l-1 1h-1l-1 1h-1l-1 1-1 1h-1l-1 1h-1l-1 1h-1l-1 1h-1l-1 1h-1l-1 1h-1l-1 1-1 1h-1l-1 1h-1l-1 1h-1l-1 1h-1l-1 1h-1l-1 1h-1l-1 1h-1l-1 1h-1l-1 1h-1l-1 1-1 1h-1l-1 1h-1l-1 1h-1l-1 1h-1l-1 1h-1l-1 1h-1l-1 1h-1l-1 1h-1l-1 1-1 1h-1l-1 1h-1l-1 1h-1l-1 1h-1l-1 1h-1l-1 1h-1l-1 1h-1l-1 1h-1l-1 1h-1l-1 1-1 1h-1l-1 1h-1l-1 1h-1l-1 1h-1l-1 1h-1l-1 1h-1l-1 1h-1l-1 1h-1l-1 1h-1l-1 1h-1l-1 1h-1l-1 1h-1l-1 1-1 1h-1l-1 1h-1l-1 1h-1l-1 1h-1l-1 1h-1l-1 1h-1l-1 1h-1l-1 1-1 1h-1l-1 1h-1l-1 1h-1l-1 1h-1l-1 1h-1l-1 1h-1l-1 1h-1l-1 1h-1l-1 1-1 1h-1l-1 1h-1l-1 1h-1l-1 1h-1l-1 1h-1l-1 1h-1l-1 1h-1l-1 1h-1l-1 1-1 1h-1l-1 1h-1l-1 1h-1l-1 1h-1l-1 1h-2l-1 1-1 1h-1l-1 1h-1l-1 1h-1l-1 1h-1l-1 1h-1l-1 1h-1l-1 1h-1l-1 1h-2l-1 1h-2l-1 1h-3l-1 1h-20l-1-1h-3l-1-1h-2l-1-1h-2l-1-1h-1l-1-1h-2l-1-1h-1l-1-1h-1l-1-1-1-1h-1l-1-1h-1l-1-1h-1l-1-1h-1l-1-1h-1l-1-1h-1l-1-1h-1l-1-1-1-1h-1l-1-1h-1l-1-1h-1l-1-1h-1l-1-1h-1l-1-1h-1l-1-1h-1l-1-1h-1l-1-1-1-1h-1l-1-1h-1l-1-1h-1l-1-1h-1l-1-1h-1l-1-1h-1l-1-1h-1l-1-1h-1l-1-1-1-1h-1l-1-1h-1l-1-1h-1l-1-1h-1l-1-1h-1l-1-1h-1l-1-1h-1l-1-1-1-1h-1l-1-1h-1l-1-1h-1l-1-1h-1l-1-1h-1l-1-1h-1l-1-1h-1l-1-1h-1l-1-1-1-1h-1l-1-1h-1l-1-1h-1l-1-1h-1l-1-1h-1l-1-1h-1l-1-1h-1l-1-1-1-1h-1l-1-1h-1l-1-1h-1l-1-1h-1l-1-1h-1l-1-1h-1l-1-1h-1l-1-1h-1l-1-1h-1l-1-1-1-1h-1l-1-1h-1l-1-1h-1l-1-1h-1l-1-1h-1l-1-1h-1l-1-1h-1l-1-1h-1l-1-1-1-1h-1l-1-1h-1l-1-1h-1l-1-1h-1l-1-1h-1l-1-1h-1l-1-1h-1l-1-1h-1l-1-1h-1l-1-1-1-1h-1l-1-1h-1l-1-1h-1l-1-1h-1l-1-1h-1l-1-1h-1l-1-1-1-1h-1l-1-1h-1l-1-1h-1l-1-1h-1l-1-1h-1l-1-1h-1l-1-1h-1l-1-1h-1l-1-1h-1l-1-1h-1l-1-1-1-1h-1l-1-1h-1l-1-1h-1l-1-1h-1l-1-1h-1l-1-1h-1l-1-1h-1l-1-1h-1l-1-1h-1l-1-1-1-1h-1l-1-1h-1l-1-1h-1l-1-1h-1l-1-1h-1l-1-1h-1l-1-1h-1l-1-1-1-1h-1l-1-1h-1l-1-1h-1l-1-1h-1l-1-1h-1l-1-1-1-1h-1l-1-1h-1l-1-1h-1l-1-1h-1l-1-1h-1l-1-1h-1l-1-1h-1l-1-1-1-1h-1l-1-1h-1l-1-1h-1l-1-1h-1l-1-1h-1l-1-1h-1l-1-1h-1l-1-1-1-1h-1l-1-1h-1l-1-1h-1l-1-1h-1l-1-1h-1l-1-1h-1l-1-1-1-1h-1l-1-1h-1l-1-1h-1l-1-1h-1l-1-1h-1l-1-1h-1l-1-1h-1l-1-1h-1l-1-1h-1l-1-1-1-1h-1l-1-1h-1l-1-1h-1l-1-1h-1l-1-1h-1l-1-1h-1l-1-1h-1l-1-1-1-1h-1l-1-1h-1l-1-1h-1l-1-1h-1l-1-1h-1l-1-1h-1l-1-1h-1l-1-1h-1l-1-1h-1l-1-1h-1l-1-1h-2l-1-1h-3l-1-1h-5l-1-1h-9Z"/>
    <path fill="#028e44" d="m242 676-1 1h-4l-1 1h-2l-1 1h-2l-1 1h-1l-1 1h-1l-1 1-1 1h-1l-1 1h-1l-1 1h-1l-1 1h-1l-1 1h-1l-1 1-1 1h-1l-1 1h-1l-1 1h-1l-1 1h-1l-1 1h-1l-1 1h-1l-1 1-1 1h-1l-1 1h-1l-1 1h-1l-1 1h-1l-1 1h-1l-1 1h-1l-1 1h-1l-1 1h-1l-1 1-1 1h-1l-1 1h-1l-1 1h-1l-1 1-1 1-1 1h-1l-1 1-1 1-1 1-1 1-1 1v1l-1 1-1 1v1l-1 1-1 1v1l-1 1v1l-1 1v2l-1 1v3l-1 1v15l1 1v3l1 1v2l1 1v1l1 1v1l1 1 1 1v1l1 1 1 1 1 1 1 1 1 1 1 1 1 1 1 1 1 1h1l1 1 1 1h1l1 1h1l1 1 1 1h1l1 1h1l1 1h1l1 1h1l1 1h1l1 1h1l1 1 1 1h1l1 1h1l1 1h1l1 1h1l1 1h1l1 1h1l1 1h1l1 1h1l1 1h1l1 1h1l1 1h1l1 1 1 1h1l1 1h1l1 1h1l1 1 1 1h1l1 1h1l1 1h1l1 1h1l1 1h1l1 1h1l1 1h1l1 1h1l1 1h1l1 1h1l1 1h1l1 1 1 1h1l1 1h1l1 1h1l1 1h1l1 1h1l1 1h1l1 1 1 1h1l1 1h1l1 1h1l1 1h1l1 1h1l1 1h1l1 1h1l1 1h1l1 1h1l1 1 1 1h1l1 1h1l1 1h1l1 1h1l1 1h1l1 1h1l1 1h1l1 1h1l1 1 1 1h2l1 1h1l1 1 1 1h1l1 1h1l1 1h1l1 1h1l1 1h1l1 1h1l1 1 1 1h1l1 1h1l1 1 1 1h1l1 1h1l1 1h1l1 1h1l1 1h1l1 1h1l1 1h1l1 1h1l1 1h1l1 1 1 1h1l1 1h1l1 1h1l1 1h1l1 1h1l1 1h1l1 1 1 1h1l1 1h1l1 1h1l1 1h1l1 1h1l1 1h1l1 1h1l1 1 1 1h1l1 1h1l1 1h1l1 1h1l1 1h1l1 1h1l1 1h1l1 1h1l1 1 1 1h1l1 1h1l1 1h1l1 1h1l1 1h1l1 1h1l1 1 1 1h1l1 1h1l1 1h1l1 1h1l1 1h1l1 1h1l1 1h1l1 1h1l1 1h1l1 1 1 1h1l1 1h1l1 1h1l1 1h1l1 1h1l1 1h1l1 1 1 1h1l1 1h1l1 1h1l1 1h1l1 1h1l1 1h1l1 1h1l1 1h1l1 1 1 1h1l1 1h1l1 1h1l1 1h1l1 1h1l1 1h1l1 1h1l1 1 1 1h1l1 1h1l1 1h1l1 1h1l1 1h1l1 1h1l1 1h1l1 1h1l1 1 1 1h1l1 1h1l1 1h1l1 1h1l1 1 1 1h2l1 1 1 1h1l1 1h1l1 1h1l1 1h1l1 1h1l1 1h1l1 1h1l1 1h1l1 1h1l1 1h1l1 1h1l1 1 1 1h1l1 1h1l1 1h1l1 1h1l1 1h1l1 1 1 1h1l1 1h1l1 1h1l1 1h1l1 1 1 1h1l1 1h1l1 1h1l1 1h1l1 1h1l1 1h1l1 1h1l1 1h1l1 1 1 1h1l1 1h1l1 1h1l1 1h1l1 1h1l1 1 1 1h1l1 1h1l1 1h1l1 1h1l1 1h1l1 1h1l1 1h2l1 1h1l1 1h2l1 1h2l1 1h3l1 1h2l1 1h2l1 1h5l1 1h5l1 1h30l1-1h5l1-1h4l1-1h3l1-1h3l1-1h2l1-1h2l1-1h1l1-1h2l1-1h1l1-1h1l1-1h1l1-1h1l1-1h1l1-1h1l1-1h1l1-1h1l1-1h1l1-1h1l1-1h1l1-1h1l1-1 1-1h1l1-1h1l1-1h1l1-1h1l1-1h1l1-1 1-1h1l1-1h1l1-1h1l1-1h1l1-1h1l1-1h1l1-1h1l1-1h1l1-1h1l1-1h1l1-1h1l1-1 1-1h1l1-1h1l1-1h1l1-1h1l1-1h1l1-1h1l1-1h1l1-1h1l1-1 1-1h1l1-1h1l1-1h1l1-1h1l1-1h1l1-1h1l1-1h1l1-1h1l1-1 1-1h1l1-1h1l1-1h1l1-1h1l1-1h1l1-1h1l1-1h1l1-1h1l1-1h1l1-1 1-1h1l1-1h1l1-1h1l1-1h1l1-1h1l1-1h1l1-1 1-1h1l1-1h1l1-1h1l1-1h1l1-1h1l1-1 1-1h1l1-1h1l1-1h1l1-1h1l1-1h1l1-1h1l1-1h1l1-1 1-1h1l1-1h1l1-1h1l1-1h1l1-1h1l1-1h1l1-1h1l1-1h1l1-1 1-1h1l1-1h1l1-1h1l1-1h1l1-1h1l1-1h1l1-1h1l1-1h1l1-1h1l1-1h1l1-1 1-1h1l1-1h1l1-1h1l1-1h1l1-1h1l1-1h1l1-1h1l1-1 1-1h1l1-1h1l1-1h1l1-1h1l1-1h1l1-1h1l1-1h1l1-1h1l1-1h1l1-1 1-1h1l1-1h1l1-1h1l1-1h1l1-1h1l1-1h1l1-1h1l1-1h1l1-1h1l1-1h1l1-1 1-1h1l1-1h1l1-1h1l1-1h1l1-1h1l1-1h1l1-1h1l1-1 1-1h1l1-1h1l1-1h1l1-1h1l1-1h1l1-1h1l1-1h1l1-1h1l1-1 1-1h1l1-1h1l1-1h1l1-1h1l1-1 1-1h1l1-1h1l1-1h1l1-1h1l1-1h1l1-1h1l1-1h1l1-1h1l1-1h1l1-1h1l1-1 1-1h1l1-1h1l1-1h1l1-1h1l1-1h1l1-1h1l1-1h1l1-1h1l1-1 1-1h1l1-1h1l1-1h1l1-1h1l1-1h1l1-1h1l1-1h1l1-1h1l1-1 1-1h1l1-1h1l1-1h1l1-1h1l1-1h1l1-1h1l1-1h1l1-1 1-1h1l1-1h1l1-1h1l1-1h1l1-1h1l1-1h1l1-1 1-1h1l1-1h1l1-1h1l1-1h1l1-1h1l1-1h1l1-1h1l1-1h1l1-1h1l1-1 1-1h1l1-1h1l1-1h1l1-1h1l1-1h1l1-1h1l1-1 1-1h1l1-1h1l1-1 1-1 1-1 1-1 1-1 1-1 1-1 1-1 1-1v-1l1-1 1-1v-1l1-1 1-1v-1l1-1v-2l1-1v-2l1-1v-6l1-1v-4l-1-1v-6l-1-1v-3l-1-1v-1l-1-1v-1l-1-1-1-1v-1l-1-1-1-1v-1l-1-1-1-1-1-1-1-1-1-1-1-1-1-1-1-1h-1l-1-1h-1l-1-1h-1l-1-1h-1l-1-1-1-1h-1l-1-1h-1l-1-1h-1l-1-1h-1l-1-1h-1l-1-1-1-1h-1l-1-1h-1l-1-1h-1l-1-1h-1l-1-1h-1l-1-1h-1l-1-1h-1l-1-1h-1l-1-1-1-1h-1l-1-1h-1l-1-1h-1l-1-1h-1l-1-1h-1l-1-1-1-1h-1l-1-1h-1l-1-1h-1l-1-1h-2l-1-1h-3l-1-1h-4l-1-1h-12l-1 1h-4l-1 1h-3l-1 1h-1l-1 1h-2l-1 1h-1l-1 1-1 1h-1l-1 1h-1l-1 1h-1l-1 1h-1l-1 1h-1l-1 1h-1l-1 1h-1l-1 1-1 1h-1l-1 1h-1l-1 1h-1l-1 1h-1l-1 1h-1l-1 1h-1l-1 1h-1l-1 1h-1l-1 1-1 1h-1l-1 1h-1l-1 1h-1l-1 1h-1l-1 1h-1l-1 1h-1l-1 1h-1l-1 1-1 1h-1l-1 1h-1l-1 1h-1l-1 1h-1l-1 1h-1l-1 1h-1l-1 1h-1l-1 1-1 1h-1l-1 1h-1l-1 1h-1l-1 1h-1l-1 1h-1l-1 1h-1l-1 1h-1l-1 1h-1l-1 1h-1l-1 1-1 1h-1l-1 1h-1l-1 1h-1l-1 1h-1l-1 1-1 1h-1l-1 1h-1l-1 1h-1l-1 1h-1l-1 1h-1l-1 1h-1l-1 1h-1l-1 1h-1l-1 1h-1l-1 1h-1l-1 1h-1l-1 1-1 1h-1l-1 1h-1l-1 1h-1l-1 1h-1l-1 1h-1l-1 1h-1l-1 1-1 1h-1l-1 1h-1l-1 1h-1l-1 1h-1l-1 1h-1l-1 1h-1l-1 1h-1l-1 1h-1l-1 1-1 1h-1l-1 1h-1l-1 1h-1l-1 1h-1l-1 1h-1l-1 1h-1l-1 1-1 1h-1l-1 1h-1l-1 1h-1l-1 1-1 1h-1l-1 1h-1l-1 1h-1l-1 1h-1l-1 1h-1l-1 1h-1l-1 1h-1l-1 1-1 1h-1l-1 1h-1l-1 1h-1l-1 1h-1l-1 1h-1l-1 1h-1l-1 1h-1l-1 1h-1l-1 1-1 1h-1l-1 1h-2l-1 1-1 1h-1l-1 1h-1l-1 1h-1l-1 1h-1l-1 1h-1l-1 1h-1l-1 1h-1l-1 1-1 1h-1l-1 1h-1l-1 1h-1l-1 1h-1l-1 1h-1l-1 1h-1l-1 1h-1l-1 1h-1l-1 1-1 1h-1l-1 1h-1l-1 1h-1l-1 1h-1l-1 1h-1l-1 1-1 1h-1l-1 1h-1l-1 1h-1l-1 1h-1l-1 1h-1l-1 1h-1l-1 1h-1l-1 1h-1l-1 1h-1l-1 1h-1l-1 1-1 1h-1l-1 1h-1l-1 1h-1l-1 1h-1l-1 1h-1l-1 1h-1l-1 1h-1l-1 1-1 1h-1l-1 1h-1l-1 1h-1l-1 1h-1l-1 1h-1l-1 1h-1l-1 1h-1l-1 1h-1l-1 1-1 1h-1l-1 1h-1l-1 1h-1l-1 1h-1l-1 1h-1l-1 1h-1l-1 1h-1l-1 1h-1l-1 1-1 1h-1l-1 1h-1l-1 1h-1l-1 1h-1l-1 1h-1l-1 1h-1l-1 1h-1l-1 1h-1l-1 1h-2l-1 1h-2l-1 1h-2l-1 1h-3l-1 1h-21l-1-1h-3l-1-1h-3l-1-1h-2l-1-1h-1l-1-1h-2l-1-1h-1l-1-1-1-1h-1l-1-1h-1l-1-1h-1l-1-1h-1l-1-1h-1l-1-1h-1l-1-1h-1l-1-1h-1l-1-1h-1l-1-1h-1l-1-1-1-1h-1l-1-1h-1l-1-1h-1l-1-1h-1l-1-1h-1l-1-1h-1l-1-1-1-1h-1l-1-1h-1l-1-1h-1l-1-1h-1l-1-1h-1l-1-1h-1l-1-1h-1l-1-1h-1l-1-1h-1l-1-1-1-1h-1l-1-1h-1l-1-1h-1l-1-1h-1l-1-1h-1l-1-1h-1l-1-1h-1l-1-1h-1l-1-1h-1l-1-1h-1l-1-1-1-1h-1l-1-1h-1l-1-1h-1l-1-1h-1l-1-1h-1l-1-1-1-1h-1l-1-1h-1l-1-1h-1l-1-1h-1l-1-1h-1l-1-1h-1l-1-1h-1l-1-1-1-1h-1l-1-1h-1l-1-1h-1l-1-1h-1l-1-1h-1l-1-1h-1l-1-1h-1l-1-1h-1l-1-1-1-1h-1l-1-1h-1l-1-1h-1l-1-1h-1l-1-1h-1l-1-1h-1l-1-1h-1l-1-1h-1l-1-1-1-1h-1l-1-1h-1l-1-1h-1l-1-1h-1l-1-1h-1l-1-1h-1l-1-1-1-1h-1l-1-1h-1l-1-1h-1l-1-1h-1l-1-1h-1l-1-1h-1l-1-1h-1l-1-1h-1l-1-1-1-1h-1l-1-1h-1l-1-1h-1l-1-1h-1l-1-1h-1l-1-1h-1l-1-1h-1l-1-1-1-1h-1l-1-1h-1l-1-1h-1l-1-1h-1l-1-1h-1l-1-1h-1l-1-1h-1l-1-1-1-1h-1l-1-1h-1l-1-1h-1l-1-1h-1l-1-1h-1l-1-1-1-1h-1l-1-1h-1l-1-1h-1l-1-1h-1l-1-1h-1l-1-1h-1l-1-1h-1l-1-1h-1l-1-1h-1l-1-1-1-1h-1l-1-1h-1l-1-1h-1l-1-1-1-1h-1l-1-1h-1l-1-1h-1l-1-1h-1l-1-1h-1l-1-1h-1l-1-1-1-1h-1l-1-1h-1l-1-1h-1l-1-1h-1l-1-1h-1l-1-1h-1l-1-1h-1l-1-1-1-1h-1l-1-1h-1l-1-1h-1l-1-1h-1l-1-1h-1l-1-1-1-1h-1l-1-1h-1l-1-1h-1l-1-1h-1l-1-1h-1l-1-1h-1l-1-1h-1l-1-1-1-1h-1l-1-1h-1l-1-1h-1l-1-1h-1l-1-1h-1l-1-1h-1l-1-1h-1l-1-1-1-1h-1l-1-1h-1l-1-1h-1l-1-1h-1l-1-1h-1l-1-1h-1l-1-1h-1l-1-1-1-1h-1l-1-1h-1l-1-1h-1l-1-1h-1l-1-1-1-1h-1l-1-1h-1l-1-1h-2l-1-1h-2l-1-1h-3l-1-1h-15Z"/>
    <path fill="#a3f5d1" d="m245 875-1 1h-5l-1 1h-3l-1 1h-2l-1 1h-1l-1 1h-1l-1 1h-1l-1 1h-1l-1 1h-1l-1 1h-1l-1 1h-1l-1 1h-1l-1 1h-1l-1 1h-1l-1 1h-1l-1 1-1 1h-1l-1 1h-1l-1 1h-1l-1 1h-1l-1 1h-1l-1 1h-1l-1 1h-1l-1 1-1 1h-1l-1 1h-1l-1 1h-1l-1 1h-1l-1 1h-1l-1 1h-1l-1 1h-1l-1 1-1 1h-1l-1 1-1 1-1 1-1 1-1 1-1 1-1 1-1 1v1l-1 1-1 1v1l-1 1v1l-1 1v1l-1 1v2l-1 1v2l-1 1v15l1 1v3l1 1v1l1 1v2l1 1 1 1v1l1 1v1l1 1 1 1 1 1 1 1 1 1 1 1 1 1 1 1 1 1 1 1h1l1 1h1l1 1h1l1 1h1l1 1h1l1 1 1 1h1l1 1h1l1 1h1l1 1h1l1 1h1l1 1h1l1 1h1l1 1 1 1h1l1 1h1l1 1h1l1 1h1l1 1h1l1 1h1l1 1h1l1 1h1l1 1h1l1 1 1 1h1l1 1h1l1 1h1l1 1h1l1 1h1l1 1h1l1 1h1l1 1h1l1 1 1 1h1l1 1h1l1 1h1l1 1h1l1 1h1l1 1h1l1 1h1l1 1 1 1h1l1 1h1l1 1h1l1 1h1l1 1h1l1 1h1l1 1h1l1 1h1l1 1h1l1 1h1l1 1 1 1h1l1 1h1l1 1h1l1 1h1l1 1h1l1 1h1l1 1h1l1 1h1l1 1h1l1 1 1 1h1l1 1h1l1 1h1l1 1h1l1 1h1l1 1h1l1 1 1 1h1l1 1h1l1 1h1l1 1h1l1 1h1l1 1h1l1 1h1l1 1h1l1 1h1l1 1h1l1 1h1l1 1 1 1h1l1 1h1l1 1h1l1 1h1l1 1h1l1 1h1l1 1 1 1h1l1 1h1l1 1h2l1 1h1l1 1h1l1 1h1l1 1 1 1h1l1 1h1l1 1h1l1 1h1l1 1h1l1 1h1l1 1 1 1h1l1 1h1l1 1h1l1 1h1l1 1h1l1 1h1l1 1h1l1 1h1l1 1h1l1 1 1 1h1l1 1h1l1 1h1l1 1h1l1 1h1l1 1h1l1 1h1l1 1 1 1h1l1 1h1l1 1h1l1 1h1l1 1h1l1 1h1l1 1h1l1 1h1l1 1h1l1 1h1l1 1h1l1 1h1l1 1h1l1 1 1 1h1l1 1h1l1 1h1l1 1h1l1 1h1l1 1 1 1h1l1 1h1l1 1h1l1 1h1l1 1h1l1 1h1l1 1h1l1 1h1l1 1 1 1h1l1 1h1l1 1h1l1 1h1l1 1h1l1 1h1l1 1h1l1 1h1l1 1h1l1 1h1l1 1h1l1 1h1l1 1 1 1h1l1 1h1l1 1h1l1 1h1l1 1h1l1 1h1l1 1 1 1h1l1 1h1l1 1h1l1 1h1l1 1h1l1 1h1l1 1h1l1 1h1l1 1h1l1 1h1l1 1 1 1h1l1 1h1l1 1h1l1 1h1l1 1h1l1 1h1l1 1h1l1 1h1l1 1h1l1 1 1 1h1l1 1h1l1 1h1l1 1h1l1 1h1l1 1h1l1 1h1l1 1h1l1 1h1l1 1h1l1 1 1 1h1l1 1h1l1 1h1l1 1h1l1 1h1l1 1h1l1 1h2l1 1h1l1 1h1l1 1h2l1 1h1l1 1h2l1 1h3l1 1h2l1 1h3l1 1h4l1 1h4l1 1h8l1 1h20l1-1h7l1-1h5l1-1h4l1-1h2l1-1h2l1-1h2l1-1h2l1-1h2l1-1h2l1-1h1l1-1h1l1-1h1l1-1h1l1-1h1l1-1h1l1-1h1l1-1h1l1-1h1l1-1 1-1h1l1-1h1l1-1h1l1-1h1l1-1h1l1-1h1l1-1h1l1-1h1l1-1h1l1-1h1l1-1 1-1h1l1-1h1l1-1h1l1-1h1l1-1h1l1-1h1l1-1h1l1-1h1l1-1h1l1-1h1l1-1h1l1-1 1-1h1l1-1h1l1-1h1l1-1 1-1h1l1-1h1l1-1h1l1-1h2l1-1 1-1h1l1-1h1l1-1h1l1-1h1l1-1h1l1-1h1l1-1 1-1h1l1-1h1l1-1h1l1-1h1l1-1h1l1-1h1l1-1h1l1-1h1l1-1h1l1-1h1l1-1h1l1-1h1l1-1 1-1h1l1-1h1l1-1h1l1-1h1l1-1h1l1-1h1l1-1 1-1h1l1-1h2l1-1h1l1-1h1l1-1 1-1h1l1-1h1l1-1h1l1-1h1l1-1h1l1-1h1l1-1h1l1-1h1l1-1h1l1-1h1l1-1 1-1h1l1-1h1l1-1h1l1-1h1l1-1h1l1-1h1l1-1h1l1-1h1l1-1h1l1-1h1l1-1h1l1-1 1-1h1l1-1h1l1-1h1l1-1h1l1-1h1l1-1h1l1-1h1l1-1h1l1-1h1l1-1h1l1-1h1l1-1h1l1-1 1-1h1l1-1h1l1-1h1l1-1h1l1-1h1l1-1h1l1-1h1l1-1h1l1-1h1l1-1 1-1h1l1-1h1l1-1h1l1-1h1l1-1h1l1-1h1l1-1h1l1-1h1l1-1h1l1-1h1l1-1h1l1-1 1-1h1l1-1h1l1-1h1l1-1h1l1-1h1l1-1h1l1-1h1l1-1h1l1-1h1l1-1h1l1-1h1l1-1h1l1-1h1l1-1h1l1-1h1l1-1 1-1h1l1-1h1l1-1h1l1-1h1l1-1h1l1-1h1l1-1h1l1-1h1l1-1h1l1-1h1l1-1h1l1-1 1-1h1l1-1h1l1-1h1l1-1h1l1-1h1l1-1h1l1-1h1l1-1h1l1-1h1l1-1h1l1-1h1l1-1 1-1h1l1-1h1l1-1h1l1-1h1l1-1h1l1-1h1l1-1h1l1-1h1l1-1h1l1-1 1-1h1l1-1h1l1-1h1l1-1h1l1-1h1l1-1h1l1-1h1l1-1h1l1-1h1l1-1h1l1-1 1-1h1l1-1h1l1-1h1l1-1h1l1-1h1l1-1h1l1-1h1l1-1h1l1-1h1l1-1h1l1-1 1-1h1l1-1h1l1-1h1l1-1h1l1-1h1l1-1 1-1h1l1-1 1-1 1-1 1-1 1-1 1-1 1-1 1-1 1-1v-1l1-1 1-1v-1l1-1v-1l1-1v-2l1-1v-2l1-1v-5l1-1v-5l-1-1v-5l-1-1v-2l-1-1v-2l-1-1v-1l-1-1v-1l-1-1-1-1v-1l-1-1-1-1-1-1-1-1-1-1-1-1-1-1-1-1-1-1h-1l-1-1-1-1h-1l-1-1h-1l-1-1h-1l-1-1h-1l-1-1h-1l-1-1h-1l-1-1h-1l-1-1h-1l-1-1-1-1h-1l-1-1h-1l-1-1h-1l-1-1h-1l-1-1h-1l-1-1h-1l-1-1h-1l-1-1h-1l-1-1-1-1h-1l-1-1h-1l-1-1h-1l-1-1h-1l-1-1h-1l-1-1h-1l-1-1h-1l-1-1h-1l-1-1h-2l-1-1h-2l-1-1h-3l-1-1h-15l-1 1h-3l-1 1h-3l-1 1h-1l-1 1h-1l-1 1h-1l-1 1h-1l-1 1h-1l-1 1h-1l-1 1h-1l-1 1h-1l-1 1h-1l-1 1-1 1h-1l-1 1h-1l-1 1h-1l-1 1h-1l-1 1-1 1h-1l-1 1h-1l-1 1h-1l-1 1h-1l-1 1h-1l-1 1h-1l-1 1h-1l-1 1h-1l-1 1h-1l-1 1-1 1h-1l-1 1h-1l-1 1h-1l-1 1h-1l-1 1h-1l-1 1-1 1h-1l-1 1h-1l-1 1h-1l-1 1h-1l-1 1h-1l-1 1h-1l-1 1h-1l-1 1h-1l-1 1h-1l-1 1h-1l-1 1-1 1h-1l-1 1h-1l-1 1h-1l-1 1h-1l-1 1h-1l-1 1h-1l-1 1-1 1h-1l-1 1h-1l-1 1h-1l-1 1h-1l-1 1h-1l-1 1h-1l-1 1h-1l-1 1h-1l-1 1h-1l-1 1-1 1h-1l-1 1h-1l-1 1h-1l-1 1h-1l-1 1h-1l-1 1h-1l-1 1-1 1h-1l-1 1h-1l-1 1h-1l-1 1h-1l-1 1h-1l-1 1h-1l-1 1h-1l-1 1h-1l-1 1h-1l-1 1-1 1h-1l-1 1h-1l-1 1h-1l-1 1h-1l-1 1h-1l-1 1-1 1h-1l-1 1h-1l-1 1h-1l-1 1h-1l-1 1h-1l-1 1h-1l-1 1h-1l-1 1h-1l-1 1h-1l-1 1-1 1h-1l-1 1h-1l-1 1h-1l-1 1h-1l-1 1h-1l-1 1h-1l-1 1-1 1h-1l-1 1h-1l-1 1h-1l-1 1h-1l-1 1h-1l-1 1h-1l-1 1h-1l-1 1h-1l-1 1-1 1h-1l-1 1h-1l-1 1h-1l-1 1h-1l-1 1h-1l-1 1h-1l-1 1-1 1h-1l-1 1h-1l-1 1h-1l-1 1h-1l-1 1h-1l-1 1h-1l-1 1h-1l-1 1h-1l-1 1h-1l-1 1-1 1h-1l-1 1h-1l-1 1h-1l-1 1h-1l-1 1h-1l-1 1h-1l-1 1h-1l-1 1-1 1h-1l-1 1h-1l-1 1h-1l-1 1h-1l-1 1h-1l-1 1h-1l-1 1h-1l-1 1h-1l-1 1-1 1h-1l-1 1h-1l-1 1h-1l-1 1h-1l-1 1h-1l-1 1h-1l-1 1h-1l-1 1h-1l-1 1h-1l-1 1h-1l-1 1-1 1h-1l-1 1h-1l-1 1h-1l-1 1h-1l-1 1h-1l-1 1-1 1h-1l-1 1h-1l-1 1h-1l-1 1h-1l-1 1h-1l-1 1h-1l-1 1h-1l-1 1h-1l-1 1h-1l-1 1h-1l-1 1h-1l-1 1-1 1h-1l-1 1h-1l-1 1h-1l-1 1h-1l-1 1h-1l-1 1h-1l-1 1-1 1h-1l-1 1h-1l-1 1h-2l-1 1h-2l-1 1h-2l-1 1h-4l-1 1h-7l-1 1h-6l-1-1h-8l-1-1h-3l-1-1h-3l-1-1h-2l-1-1h-1l-1-1h-1l-1-1h-1l-1-1h-1l-1-1h-1l-1-1h-1l-1-1h-1l-1-1-1-1h-1l-1-1h-1l-1-1h-1l-1-1h-1l-1-1h-1l-1-1h-1l-1-1-1-1h-1l-1-1h-1l-1-1h-1l-1-1h-1l-1-1h-1l-1-1h-1l-1-1h-1l-1-1-1-1h-1l-1-1h-1l-1-1h-1l-1-1h-1l-1-1h-1l-1-1-1-1h-1l-1-1h-1l-1-1h-1l-1-1h-1l-1-1h-1l-1-1h-1l-1-1h-1l-1-1-1-1h-1l-1-1h-1l-1-1h-1l-1-1h-1l-1-1h-1l-1-1-1-1h-1l-1-1h-1l-1-1h-1l-1-1h-1l-1-1h-1l-1-1-1-1h-1l-1-1h-1l-1-1h-1l-1-1h-1l-1-1h-1l-1-1h-1l-1-1h-1l-1-1h-1l-1-1h-1l-1-1-1-1h-1l-1-1h-1l-1-1h-1l-1-1h-1l-1-1-1-1h-1l-1-1h-1l-1-1h-1l-1-1h-1l-1-1h-1l-1-1h-1l-1-1h-1l-1-1h-1l-1-1-1-1h-1l-1-1h-1l-1-1h-1l-1-1h-1l-1-1h-1l-1-1-1-1h-1l-1-1h-1l-1-1h-1l-1-1h-1l-1-1h-1l-1-1h-1l-1-1-1-1h-1l-1-1h-1l-1-1h-1l-1-1h-1l-1-1h-1l-1-1-1-1h-1l-1-1h-1l-1-1h-1l-1-1h-1l-1-1h-1l-1-1h-1l-1-1h-1l-1-1-1-1h-1l-1-1h-1l-1-1h-1l-1-1h-1l-1-1h-1l-1-1-1-1h-1l-1-1h-1l-1-1h-1l-1-1h-1l-1-1h-1l-1-1h-1l-1-1h-1l-1-1h-1l-1-1-1-1h-1l-1-1h-1l-1-1h-1l-1-1h-1l-1-1h-1l-1-1-1-1h-1l-1-1h-1l-1-1h-1l-1-1h-1l-1-1-1-1h-1l-1-1h-1l-1-1h-1l-1-1h-1l-1-1h-1l-1-1h-1l-1-1-1-1h-1l-1-1h-1l-1-1h-1l-1-1h-1l-1-1h-1l-1-1h-1l-1-1h-1l-1-1-1-1h-1l-1-1h-1l-1-1h-1l-1-1h-1l-1-1h-1l-1-1-1-1h-1l-1-1h-1l-1-1h-1l-1-1h-1l-1-1h-1l-1-1-1-1h-1l-1-1h-1l-1-1h-1l-1-1h-1l-1-1h-1l-1-1-1-1h-1l-1-1h-1l-1-1h-1l-1-1h-1l-1-1-1-1h-1l-1-1h-1l-1-1h-1l-1-1h-1l-1-1h-1l-1-1h-1l-1-1h-1l-1-1-1-1h-1l-1-1h-1l-1-1h-1l-1-1h-1l-1-1-1-1h-1l-1-1h-1l-1-1h-1l-1-1h-1l-1-1h-2l-1-1h-3l-1-1h-5l-1-1h-6Z"/>
</svg>
